<svg width="16" height="16" fill="none" xmlns="http://www.w3.org/2000/svg"><path fill-rule="evenodd" clip-rule="evenodd" d="M5.5 2h5a.5.5 0 0 1 .5.5v3a.5.5 0 0 1-.5.5h-5a.5.5 0 0 1-.5-.5v-3a.5.5 0 0 1 .5-.5ZM7 7h2v1.5a.5.5 0 0 0 .5.5H12v1h-1.5A1.5 1.5 0 0 0 9 11.5v2a1.5 1.5 0 0 0 1.5 1.5h3a1.5 1.5 0 0 0 1.5-1.5v-2a1.5 1.5 0 0 0-1.5-1.5H13V8.5a.5.5 0 0 0-.5-.5H10V7h.5A1.5 1.5 0 0 0 12 5.5v-3A1.5 1.5 0 0 0 10.5 1h-5A1.5 1.5 0 0 0 4 2.5v3A1.5 1.5 0 0 0 5.5 7H6v1H3.5a.5.5 0 0 0-.5.5V10h-.5A1.5 1.5 0 0 0 1 11.5v2A1.5 1.5 0 0 0 2.5 15h3A1.5 1.5 0 0 0 7 13.5v-2A1.5 1.5 0 0 0 5.5 10H4V9h2.5a.5.5 0 0 0 .5-.5V7Zm-3.5 4h-1a.5.5 0 0 0-.5.5v2a.5.5 0 0 0 .5.5h3a.5.5 0 0 0 .5-.5v-2a.5.5 0 0 0-.5-.5h-2Zm7 0h3a.5.5 0 0 1 .5.5v2a.5.5 0 0 1-.5.5h-3a.5.5 0 0 1-.5-.5v-2a.5.5 0 0 1 .5-.5Z" fill="#778192"/></svg>