<svg width="24" height="24" fill="none" xmlns="http://www.w3.org/2000/svg"><path fill-rule="evenodd" clip-rule="evenodd" d="M10.666 21.616c-.062-.434-.4-.772-.826-.877a8.926 8.926 0 0 1-1.238-.403c-.404-.16-.872-.085-1.175.228L6.335 21.69a.962.962 0 0 1-1.074.221.909.909 0 0 1-.15-.085 11.95 11.95 0 0 1-.33-.24c-.372-.281-.465-.793-.247-1.205l.445-.84.01-.018.281-.531c.203-.384.131-.851-.146-1.186a9.028 9.028 0 0 1-.774-1.063c-.232-.366-.654-.579-1.082-.504l-1.55.27a.979.979 0 0 1-.759-.179.902.902 0 0 1-.31-.428 11.868 11.868 0 0 1-.127-.39c-.136-.445.09-.914.509-1.119l.852-.417.017-.008.545-.267c.389-.19.605-.61.579-1.043a9.13 9.13 0 0 1 0-1.319c.026-.432-.19-.851-.58-1.042l-.556-.272a.115.115 0 0 1-.005-.003l-.852-.417C.612 9.4.386 8.932.522 8.486c.04-.13.083-.26.127-.39.152-.44.61-.687 1.07-.607l.935.164.01.001.604.106c.428.075.85-.138 1.082-.503a9.03 9.03 0 0 1 .775-1.065c.276-.334.348-.801.145-1.185l-.283-.535a.966.966 0 0 1-.008-.015l-.445-.839c-.218-.412-.125-.924.247-1.205.109-.082.22-.162.33-.24a.901.901 0 0 1 .401-.157.973.973 0 0 1 .823.293l1.092 1.128c.22.226.526.328.833.306.118-.01.237-.037.35-.083a8.93 8.93 0 0 1 1.23-.4c.426-.104.764-.442.826-.876l.22-1.553c.066-.462.443-.822.91-.83L12 0c.068 0 .136 0 .204.002.467.007.844.367.91.83l.22 1.552c.062.434.4.772.826.877.425.105.839.24 1.238.403.404.16.872.085 1.175-.227l1.092-1.128a.959.959 0 0 1 1.033-.239c.066.026.13.06.19.103.112.078.222.158.33.24.373.281.466.793.248 1.205l-.445.84a1.078 1.078 0 0 1-.01.018l-.281.53c-.204.385-.131.852.146 1.186.283.335.541.69.774 1.064.232.366.654.579 1.082.504l1.55-.27a.983.983 0 0 1 .785.2.902.902 0 0 1 .284.407c.044.129.087.259.127.39.136.445-.09.914-.509 1.119l-.852.417a1.256 1.256 0 0 1-.017.008l-.545.267c-.389.19-.605.61-.579 1.042a9.116 9.116 0 0 1 0 1.32c-.026.432.19.851.58 1.042l.555.272.006.003.852.417c.419.205.645.674.508 1.12-.04.13-.082.26-.126.39-.152.44-.61.687-1.07.607l-.935-.164-.009-.001-.605-.106c-.428-.075-.85.138-1.082.503a9.03 9.03 0 0 1-.775 1.065c-.276.334-.348.801-.145 1.185l.283.534.008.016.445.839c.218.412.125.924-.247 1.205-.109.082-.22.162-.33.24a.9.9 0 0 1-.503.165.979.979 0 0 1-.721-.301l-1.092-1.127a1.038 1.038 0 0 0-.79-.309 1.145 1.145 0 0 0-.393.085 8.922 8.922 0 0 1-1.23.4c-.426.104-.764.442-.826.876l-.22 1.553c-.066.462-.443.822-.91.83a12.593 12.593 0 0 1-.408 0m0 0c-.467-.008-.844-.368-.91-.83l-.22-1.553m-.077-2.758a7.035 7.035 0 0 0 2.842-.004 7.003 7.003 0 0 0-.627-13.808 7 7 0 0 0-2.214 13.812Z" fill="#778192"/></svg>