<svg width="16" height="16" fill="none" xmlns="http://www.w3.org/2000/svg"><path fill-rule="evenodd" clip-rule="evenodd" d="M6.122 13.473 4.5 12.5l-1.5.9-.243.146a.5.5 0 0 1-.757-.43V2.5A1.5 1.5 0 0 1 3.5 1h7A1.5 1.5 0 0 1 12 2.5v4.258a4.5 4.5 0 1 1-5.878 6.716ZM11 2.5v3.756A4.493 4.493 0 0 0 9.5 6a4.481 4.481 0 0 0-2.829 1H5.5a.5.5 0 0 0 0 1h.258a4.502 4.502 0 0 0-.586 3.737l-.157-.095-.258-.154a.5.5 0 0 0-.514 0l-.258.155-.985.59V2.5a.5.5 0 0 1 .5-.5h7a.5.5 0 0 1 .5.5Zm-6 2a.5.5 0 0 1 .5-.5h3a.5.5 0 0 1 0 1h-3a.5.5 0 0 1-.5-.5Zm8 6a3.5 3.5 0 1 1-7 0 3.5 3.5 0 0 1 7 0Zm-1.146-.646a.5.5 0 0 0-.708-.708L9 11.293l-1.146-1.147a.5.5 0 0 0-.708.708l1.5 1.5a.5.5 0 0 0 .708 0l2.5-2.5Z" fill="#778192"/></svg>